<svg id="Livello_2" data-name="Livello 2" xmlns="http://www.w3.org/2000/svg" viewBox="0 0 233.71 160.1"><defs><style>.cls-1{fill:#8e0000;}.cls-2{fill:#fff;}.cls-3{fill:#323031;}</style></defs><title>logo-tablet-white</title><path class="cls-1" d="M215.55,131.75c3.2,9.4,6.1,15.8,8.6,19.2,1.7,2.1,3.5,3.2,5.4,3.2a4.85,4.85,0,0,0,4.1-2c.9-1.3,1.5-4.2,1.8-8.6h6.9c0,8.4-2.3,15-6.6,19.8a21.33,21.33,0,0,1-16.4,7.3c-6.5,0-11.7-2.2-15.7-6.6s-6.4-12.1-7.4-23.2q-3.45.75-7.2,1.2a63.39,63.39,0,0,1-7.6.4q-24,0-40.5-16.8t-16.5-42.3c0-17.1,5.5-31.2,16.4-42.3s24.4-16.7,40.7-16.7,30,5.6,41.1,16.8,16.7,25,16.7,41.5a62,62,0,0,1-5.7,27.1c-3.7,7.7-9.8,15.1-18.1,22m-7.3-18.4a122.9,122.9,0,0,0,3.8-32.1c0-12.3-1.3-22-3.9-29s-6.2-12.2-10.8-15.5a26.23,26.23,0,0,0-15.7-5A25.13,25.13,0,0,0,166,37a28.82,28.82,0,0,0-10,14.5c-2.8,8.8-4.2,19.5-4.2,32.2q0,22.95,6.3,36c.3-7.3,2.6-13.1,6.9-17.2s10.3-6.2,17.9-6.2a25.78,25.78,0,0,1,14.6,4.2,34.05,34.05,0,0,1,10.8,12.9m-12,17.2.2-4.2c0-7.5-1.5-13.1-4.4-16.9a14,14,0,0,0-11.5-5.7,13.75,13.75,0,0,0-10.4,4.6,16.11,16.11,0,0,0-4.4,11.4,20.07,20.07,0,0,0,4.1,12.1,26.23,26.23,0,0,0,11.9,3,29.38,29.38,0,0,0,8.1-1.1,19.24,19.24,0,0,0,6.4-3.2" transform="translate(-8.65 -10.55)"/><path class="cls-2" d="M81.65,10.55h104.4l1.2,40.8h-7.2c-1.3-12.6-4.2-21.3-8.8-26.1s-11.7-7.2-21.3-7.2h-17.5c-2.6,0-4.4.5-5.6,1.6a5.88,5.88,0,0,0-1.8,4.6v39.6h6.4c12.7,0,20.1-7.6,22-22.7h7v54.6h-7c-.2-5.9-1.2-10.5-2.9-13.9a20.41,20.41,0,0,0-7.1-8,19.13,19.13,0,0,0-10.4-2.9H125v43.1c0,2.3.6,4,1.8,5a9.33,9.33,0,0,0,6.2,2.3h11.2v7.4H81.55v-7.4h10.5a7.74,7.74,0,0,0,5.7-2,6.63,6.63,0,0,0,2-4.9V24.05c0-2.3-.7-3.9-2-4.8s-4-1.4-8-1.4h-8.2l.1-7.3Z" transform="translate(-8.65 -10.55)"/><path class="cls-2" d="M24.85,37.05c-1.7-.6-3.7.2-6,2.6a29.65,29.65,0,0,0-5.9,9.6,30.53,30.53,0,0,0-2.3,11c0,3.4,1,5.4,2.6,6.1a2.92,2.92,0,0,0,.9.2c1.5.1,3.1-.8,5.1-2.8a28.39,28.39,0,0,0,5.7-9.6,27.84,27.84,0,0,0,2.3-11c0-2.4-.4-4.1-1.4-5.1A2,2,0,0,0,24.85,37.05Z" transform="translate(-8.65 -10.55)"/><path class="cls-2" d="M68.45,61.45s-6.3-9.2-4.8-10.4,2.7-4.9,7.3-3.4c0,0,4.8-2.2,6.7-1.2l4.8,1.1,5.3,3.8,5.7,4.9s3.5.3,3.8,1.5l.7,3.3a4.69,4.69,0,0,1,3,5.1s2.4,4.9-7.3,13l-4.1,3.2,1.2.8,6.5,3.2,3.3.8,4.7,12.3H107l2.7,6.4v2.4l1.8,8.9-14.3,18.2v2.2l17,14.5.8,1.1s-24.7,16.6-36.5,15.8l-18.8-17.8-14.4-19.3,27.3-17.5-10.4-14.9-.8,3.9-7.1,3.2-3.5-3-5.6,3.2-6.4-1.4-5.2-14.3-.9-8.7-1.9-7.2-.6-1.5,1.5-2,3.2-.3,2.8.4,1.3.4,1.6-.6,1.6,1.9-.9,2.8,2.8-.4v3l-1.7,2.4-2.5.5,6.6,12.9.8-5.5,8.8-2.9,3.9-.7,6-1.5.9,1.9,3.4-4.2,2-.6v-.9l-5.7-1.2-1.1-3.2,4.3-8.1-3.4-1.1Z" transform="translate(-8.65 -10.55)"/><path d="M46.35,92.45l-.1-.1c0,.1,0,.1.1.1Z" transform="translate(-8.65 -10.55)"/><path d="M69,82.35h0c.1-.1,0-.1,0,0Z" transform="translate(-8.65 -10.55)"/><path d="M37.85,71.55h-.2C37.75,71.65,37.75,71.55,37.85,71.55Z" transform="translate(-8.65 -10.55)"/><path d="M99.85,113.75l-.2-.4c-.2,0-.3.1-.5.1h-.1a.76.76,0,0,0-.4.1h-.6a.9.9,0,0,0-.5-.1c-.2-.1-.4-.1-.5-.2s-.4-.3-.6-.4a1.7,1.7,0,0,0,.1.7,2,2,0,0,0,.1.7,1.27,1.27,0,0,0,.1.6v1.2c.1.6.2,1.3.3,2a5,5,0,0,0,.2,1.2c.1.4.1.7.2,1.1s.1.6.2,1a10.37,10.37,0,0,0,.4-1,3.81,3.81,0,0,0,.3-1c.1-.3.2-.5.3-.8s.1-.2.1-.4c.3-.8.4-1.4.6-2.1l.1-.1c.1-.1.1-.3.2-.4s.1-.4.3-.5a.37.37,0,0,1,.1-.3c0-.1.1-.2.1-.3v-.1a.35.35,0,0,0,.1-.2.35.35,0,0,1-.1-.2c-.3-.1-.3-.2-.3-.2Z" transform="translate(-8.65 -10.55)"/><path d="M76.85,63.75c-.2-.1-.8-.4-1.7-.8a1,1,0,0,1-.6-.5h-.2a3.55,3.55,0,0,1-.7-.1,1.24,1.24,0,0,0-.2.3c-.2,0-.4.3-.5.7l-.3.8a.4.4,0,0,0,.2.4h0c.1.1.1.2.3.3a1.61,1.61,0,0,0,1.1.5,2.64,2.64,0,0,0,.7-.1,8.66,8.66,0,0,0,1-.2c-.1-.2-.4-.3-.9-.4a1.87,1.87,0,0,1-1.1-.5l-.1-.1A.1.1,0,0,1,74,64c.1,0,.2.1.4.1.5,0,.9-.1,1.2-.1.1,0,.1,0,.2.1a19.6,19.6,0,0,1,2.2,1,.31.31,0,0,0,.2-.1l-.2-.2C77.15,64.05,76.85,63.85,76.85,63.75Z" transform="translate(-8.65 -10.55)"/><path d="M77.45,55.55a63.67,63.67,0,0,1,12.2,10.7h0a12,12,0,0,1,2.3,3.4,8.57,8.57,0,0,1,.7,4.5,16.66,16.66,0,0,1-.6,2.9c-.2.5-.4,1.1-.6,1.6v.1a4.23,4.23,0,0,1,.7-.5c3-4.1,2.2-8.8-2.2-14-.1-.1-.2-.3-.3-.4h0c-.5-.6-1.1-1.2-1.7-1.8V62a93,93,0,0,0-13.6-11.5,8.11,8.11,0,0,0-6.1-1.5,4,4,0,0,0-1.9,1.5,3.71,3.71,0,0,0-.1,3.8l.1.1,2.8,5.3c.5-3,1.4-4.8,2.8-5.6C73.05,53.35,75.05,53.85,77.45,55.55Z" transform="translate(-8.65 -10.55)"/><path d="M69.85,66.65c-.3,0-.5.1-.5.3s.1.2.2.3.3.2.4.2c.3,0,.4-.2.4-.7A1.21,1.21,0,0,0,69.85,66.65Z" transform="translate(-8.65 -10.55)"/><path d="M70,64.05h0a.31.31,0,0,0,.1-.2h0c0-.2,0-.3.1-.4s-.1-.3-.2-.3-.4-.1-.6-.1-.3.1-.4.1-.1.1-.1.3a1.69,1.69,0,0,1-.2.5c.1,0,.2,0,.2.1v.3h.4a1.44,1.44,0,0,0-.2.3c0,.1,0,.1.1.1a1.33,1.33,0,0,0,.7-.3A1,1,0,0,1,70,64.05Z" transform="translate(-8.65 -10.55)"/><path d="M80.05,61.25a9.68,9.68,0,0,1-.9-.7,17,17,0,0,0-2.3-.5q-3.3-.45-3.3.6v.2a.35.35,0,0,1,.2.1c.1,0,.2.1.3.2h.6a.71.71,0,0,1,.6-.3,6.25,6.25,0,0,1,1.4,0h1.2c.1,0,.2,0,.3.2h0c.1,0,.2.1.3.1a4.13,4.13,0,0,1,.9.4h.7c0-.1.1-.1,0-.3Z" transform="translate(-8.65 -10.55)"/><path class="cls-3" d="M24.05,39.25c-1.5-.6-3.2.2-5.2,2.3a23.82,23.82,0,0,0-5,8.3,27.92,27.92,0,0,0-2,9.5c0,2.9.8,4.6,2.3,5.2a2.35,2.35,0,0,0,.8.2c1.3.1,2.7-.7,4.4-2.4a24.31,24.31,0,0,0,4.9-8.3,25.72,25.72,0,0,0,2-9.5c0-2.1-.4-3.6-1.2-4.4A4.06,4.06,0,0,0,24.05,39.25Z" transform="translate(-8.65 -10.55)"/><path d="M69.65,62.35c.1,0,.1-.1.1-.2a.91.91,0,0,0-.3-.5c-.2-.1-.4-.3-.6-.3V62a1.24,1.24,0,0,0,.3.2C69.45,62.25,69.55,62.35,69.65,62.35Z" transform="translate(-8.65 -10.55)"/><path d="M89.75,70.35a4.88,4.88,0,0,1-.7.3,9.42,9.42,0,0,1-1,.4h0l-.1.1h0c0,.3.1.4.3.4a1.69,1.69,0,0,0,.5-.2,1.69,1.69,0,0,1,.5-.2,1.05,1.05,0,0,1,1,.8,2.92,2.92,0,0,1,.2.9,1.38,1.38,0,0,1-.5.9c-.3.3-.4.5-.4.7s0,.1.2.1a3.33,3.33,0,0,0,.6-.3v.2a1.53,1.53,0,0,0,.7-1.1,2,2,0,0,0,.1-.7c0-.2.1-.4.1-.6a3,3,0,0,0-.2-1A1.86,1.86,0,0,0,89.75,70.35Z" transform="translate(-8.65 -10.55)"/><path d="M87.75,72.25c-.1,0-.3,0-.3.1h0c0,.1-.1.1-.1.2a.35.35,0,0,1-.2.1v.2c0,.1.1.2.2.3s.3.3.3.4.1.2.2.3V74a4.91,4.91,0,0,1,.4,1c.4-.1.6-.5.7-1.3C88.65,72.65,88.25,72.25,87.75,72.25Z" transform="translate(-8.65 -10.55)"/><path d="M87.85,62.35Z" transform="translate(-8.65 -10.55)"/><path d="M85.45,76.55a.1.1,0,0,0,.1-.1h-.1a4.1,4.1,0,0,1-1.4-.3.91.91,0,0,1-.3-.7h0a.6.6,0,0,1-.1-.4v-.3c-.2,0-.5.3-1,1a3,3,0,0,0-.7,1.6c0,.5.3.7.9.7a9.54,9.54,0,0,0,2.1-.3,3.9,3.9,0,0,0,1.8-.7,1.27,1.27,0,0,1-.6-.1C85.75,76.75,85.45,76.65,85.45,76.55Z" transform="translate(-8.65 -10.55)"/><path d="M88,61.75Z" transform="translate(-8.65 -10.55)"/><path d="M96.75,72.55a1.59,1.59,0,0,0,1.2-.4.86.86,0,0,0,.3-.6.76.76,0,0,0-.2-.4c-.1-.2-.4-.2-.8,0v-.8a.78.78,0,0,0-.3-.7c-.7-.5-1-.2-1,1S96.25,72.55,96.75,72.55Z" transform="translate(-8.65 -10.55)"/><path d="M75.45,50.05l.3.2.1.1c.2.1.4.3.7.5,2.8,2.1,4.4,3.2,4.5,3.4.4.3.9.8,1.7,1.5a14.15,14.15,0,0,0,1.6,1.4,11.72,11.72,0,0,1,1.6,1.5c.2.3.5.7.9,1.3a6.12,6.12,0,0,1,.5,1.2l.7.7V62c.6.6,1.2,1.2,1.7,1.8.1.1.2.3.4.4a1.38,1.38,0,0,1,.3.4,14,14,0,0,0,1.8,1.2,4.25,4.25,0,0,1,1.8,3.6c.1,1.4.4,2.1.7,2.1s.5-1.2.5-3.7a3.66,3.66,0,0,0-.9-2.5,14.66,14.66,0,0,0-3.2-2.6,9.57,9.57,0,0,1-2.4-2.5,17.59,17.59,0,0,0-2.1-2.6c-2.4-2.2-4.4-3.9-5.9-5.1a36.72,36.72,0,0,0-7.2-4.4s-.1,0-.1.2A14.42,14.42,0,0,0,75.45,50.05Z" transform="translate(-8.65 -10.55)"/><path d="M75.85,130.75c-1.4,1-2.8,1.9-4.2,2.9A129.51,129.51,0,0,0,94.15,157h0a4.35,4.35,0,0,1,.7-.4l3.6-2.4A130.5,130.5,0,0,1,75.85,130.75Z" transform="translate(-8.65 -10.55)"/><path d="M40.05,75.65c.1,0,.2.1.3.1v-.6a3.34,3.34,0,0,0-.8-2.6A5.52,5.52,0,0,1,40.05,75.65Z" transform="translate(-8.65 -10.55)"/><polygon points="66.11 106.5 40.81 122.5 43.81 126.9 69.01 111 66.11 106.5"/><polygon points="70.31 113.2 45.51 129.2 46.51 130.5 71.21 114.5 70.31 113.2"/><path d="M60.05,140.65c-1.2.7-2.4,1.5-3.7,2.3a157.41,157.41,0,0,0,23.2,22.9c1.1-.7,2.1-1.3,3-1.9A129.51,129.51,0,0,1,60.05,140.65Z" transform="translate(-8.65 -10.55)"/><path d="M70.25,134.45c-1.3.8-2.6,1.7-4,2.5a129.51,129.51,0,0,0,22.5,23.3,4.35,4.35,0,0,0,.7-.4l3.3-2.1A129.51,129.51,0,0,1,70.25,134.45Z" transform="translate(-8.65 -10.55)"/><path class="cls-1" d="M115.45,151.55h0a1.79,1.79,0,0,0-.5-.7h0a139.27,139.27,0,0,1-14-11.4l-.4-.4a.78.78,0,0,0-.4-.4c-.1-.1-.3-.2-.4-.4s-.3-.2-.4-.4a1.38,1.38,0,0,1-.4-.3l-.4-.4c-.1-.2-.3-.3-.4-.4s-.2-.2-.4-.4c.1-.2.3-.2.4-.3s.3-.3.4-.4.1-.1.1-.2.1-.2.1-.3.1-.4.2-.5a1.27,1.27,0,0,0,.1-.6V134c.1-.1.3-.2.3-.3s.1-.1.2-.1h0a.1.1,0,0,1,.1-.1c.1-.1.3-.2.4-.4q10.35-9,11.1-16.2v-.2l-.1-.4a1.27,1.27,0,0,0-.1-.6v-.1l-1.4-6.7v-.1a.1.1,0,0,0-.1-.1,1,1,0,0,0-.1-.3.37.37,0,0,0-.1-.3h0a2.09,2.09,0,0,0,.4-.6,3.7,3.7,0,0,0,.3-3.4l-1.1-3.5a3.81,3.81,0,0,0-1.7-2.3.1.1,0,0,1-.1-.1c-.1,0-.4-.1-.5-.1s-.4-.1-.6-.1a1.06,1.06,0,0,1-.2-.5c-.1-.2-.1-.4-.2-.5l-.1-.1a.76.76,0,0,0-.2-.4c0-.1-.1-.2-.1-.3l-.1-.2c-.1-.1-.1-.3-.2-.4s-.1-.1-.1-.2a64.79,64.79,0,0,0-4.7-8.5v-.1c-.1-.1-.2-.3-.3-.3a17.6,17.6,0,0,0-3.9-2c-.1-.1-.3-.1-.4-.2s-.4-.1-.5-.2-.3-.1-.5-.2-.2-.1-.4-.1l-.1-.1c-.1-.1-.3-.1-.5-.2s-.4-.1-.5-.2-.1-.1-.2-.1h-.1a.1.1,0,0,0-.1-.1c-.1-.1-.3-.1-.5-.2v-.5c0-.1-.1-.1-.1-.2a1,1,0,0,0-.4-.5.35.35,0,0,0-.2-.1c0-.1,0-.1-.1-.1h0a.77.77,0,0,0-.3-.2c-.1-.1-.3-.2-.4-.3s-.1-.1-.2-.1a1.27,1.27,0,0,0,.6-.1h0c.1,0,.2-.1.3-.2s.1-.1.2-.1.3-.2.5-.3.3-.3.4-.3h0c.1-.1.3-.2.4-.3v-.1h0c.1-.1.2-.3.3-.4h0a43.15,43.15,0,0,0,6.1-6l.1-.1c2.3-4,2.3-7.7,0-11.2a.1.1,0,0,1-.1-.1c-.3-.4-.6-.7-.9-1.1-.4-2.8-1.8-4.3-4.3-4.4a60.37,60.37,0,0,0-10.4-7.5c-3.4-2.3-6.7-3.3-10-2.8h-.2a.76.76,0,0,0-.4.1h-.5c0,.1,0,.1-.1.1s-.4.1-.6.1-.4.1-.6.2l-.6.3h-.1c-2.5-.5-4.8.3-6.9,2.5v.1h0c-1.4,1.6-1.2,3.7.4,6.1l2.9,5.3c0,.2-.1.4-.1.6v.6h0v.3a.9.9,0,0,1-.1.5c0,.1-.1.1-.1.2a.91.91,0,0,1-.3.5l-.1.1h0c-.1.1-.1.3-.2.4s-.2.3-.2.5a.9.9,0,0,0-.1.5.75.75,0,0,1-.1.5l-1.5-.2-37.6-28.4a5.23,5.23,0,0,0-1.7-1.2h-.1c-2.1-1-4.6,0-7.4,2.9a32.76,32.76,0,0,0-6.2,10.3,29.94,29.94,0,0,0-2.4,11.8c.1,4.1,1.2,6.6,3.5,7.3h0a5.27,5.27,0,0,0,1.2.3h.7a.9.9,0,0,0,.5-.1l9.1,1.4v.6a.1.1,0,0,1,.1.1.77.77,0,0,1,.2.3c0,.1.2.1.3.3a.37.37,0,0,1,.3.1h.3a.37.37,0,0,0,.3-.1c.1,0,.1,0,.2.1a9.66,9.66,0,0,0,2.2,5c.1,0,.1.1.1.2a7.1,7.1,0,0,0,1.4,1,.37.37,0,0,0,.3.1c.1,0,.2.1.3.1v.3c0,.1.1.3.1.4a4.33,4.33,0,0,0,.1.5v.1a13.09,13.09,0,0,0,1.6,3.7,4.41,4.41,0,0,0,.3,1.4h0c0,2,.6,5.8,1.9,11.5a36.54,36.54,0,0,0,2.4,7.1.76.76,0,0,1,.2.5c.1.2.2.3.3.5a1.69,1.69,0,0,1,.2.5c.2.2.2.3.4.5s.2.3.3.5.2.3.4.5h0l1.1,1.1h.1c.1.1.1.1.2.1h0a.1.1,0,0,1,.1.1c.1,0,.1.1.2.1v.1h.1a.52.52,0,0,0,.4.2l.1.1.9.4h.1c.1,0,.2.1.3.1a.37.37,0,0,1,.3.1h1.1a1.48,1.48,0,0,0,.7-.1c.2,0,.4-.1.7-.1a1.27,1.27,0,0,0,.6-.1c.1-.1.4-.1.5-.1a1.42,1.42,0,0,1,.6-.2c.2-.1.4-.1.5-.2a4.88,4.88,0,0,0,.7-.3c.2-.1.3-.1.5-.2s.3-.1.5-.2.3-.2.5-.2.4-.1.5-.3a1.33,1.33,0,0,0,.5-.3h.1l.9-.4.2.2c.1,0,.1.1.2.2s.3.2.5.4a2.19,2.19,0,0,1,.5.3,3.08,3.08,0,0,0,1.3.3,2.22,2.22,0,0,0,.9-.1.6.6,0,0,0,.4-.1l.1-.1h.1l3.6-1.5h-.1a3.54,3.54,0,0,0,1.6-.9c.2-.2.3-.4.4-.5a3.55,3.55,0,0,0,.4-.9,3.75,3.75,0,0,1,.1,1,2.2,2.2,0,0,1,.1.8,88.64,88.64,0,0,0,2.7,11v.1a.6.6,0,0,1,.1.4.37.37,0,0,0,.1.3v.2c.1.2.1.3.2.4v.1c.1.2.1.3.2.5s.1.3.2.5a1.38,1.38,0,0,1-.4.3c-.1.1-.3.2-.4.4a.54.54,0,0,0-.4.3.1.1,0,0,0-.1.1c-.1,0-.2.1-.3.2s-.1.1-.2.1-.2.1-.3.1-.2.2-.3.2-.1.1-.2.1a.76.76,0,0,1-.4.2h-.1c-.1.1-.3.2-.4.3a144.14,144.14,0,0,1-17.6,10.4h0a1.21,1.21,0,0,0-.5.5,1.45,1.45,0,0,0-.2.7v.1a1.08,1.08,0,0,0,.3.7h0q16.5,23.7,33.9,36.9H77c.1.1.2.1.3.2s.3.1.5,0h.1a82.19,82.19,0,0,0,35.9-16.7,1,1,0,0,0,.4-.7h0C115.55,152.05,115.55,151.85,115.45,151.55ZM25,54.15a27.59,27.59,0,0,1-5.9,9.7c-1.8,1.9-3.5,2.9-4.9,2.8a2.35,2.35,0,0,1-.8-.2c-1.6-.7-2.4-2.6-2.4-5.9a28.74,28.74,0,0,1,2.3-11.2,29.13,29.13,0,0,1,5.9-9.7c2.3-2.3,4.1-3.2,5.7-2.5a2.59,2.59,0,0,1,1.1.7l.1.1h0a7.77,7.77,0,0,1,1.3,4.9A31,31,0,0,1,25,54.15Zm80.7,45.5a1.67,1.67,0,0,1,2.2,1.3l1.1,3.5a2.48,2.48,0,0,1-.7,2.8.1.1,0,0,0-.1.1,6.22,6.22,0,0,1-1.2.8h0l-1.6.8-5,2.4h0a3.18,3.18,0,0,1-.9.3h0a2,2,0,0,1-2.3-.5,5.94,5.94,0,0,1-.4-.8l-1.1-3.5a1.7,1.7,0,0,1-.1-.7h0a3.4,3.4,0,0,1,.1-1c.1-.1.2-.3.3-.4v-.1h0c.1-.1.1-.2.2-.3a5,5,0,0,1,1.6-1.1l2.3-1.1ZM98,113.55h.6a.6.6,0,0,1,.4-.1h.1c.2,0,.3-.1.5-.1l.2.4h0a.31.31,0,0,0,.1.2.35.35,0,0,0,.1.2c0,.1-.1.1-.1.2v.1c0,.1-.1.2-.1.3s-.1.1-.1.3a2.19,2.19,0,0,1-.3.5c-.1.1-.1.3-.2.4l-.1.1q-.3.9-.6,2.1c0,.1-.1.2-.1.4a2.61,2.61,0,0,1-.3.8c-.1.3-.2.7-.3,1a6.89,6.89,0,0,1-.4,1c-.1-.4-.1-.7-.2-1s-.1-.7-.2-1.1-.1-.8-.2-1.2c-.1-.7-.2-1.4-.3-2v-1.2c0-.2-.1-.4-.1-.6a1.48,1.48,0,0,0-.1-.7,1.48,1.48,0,0,0-.1-.7c.2.1.4.3.6.4s.4.1.5.2m-5-21.8v-.2c0-2,.3-4.1.5-6.4.4.1.7.3,1.1.4a20.25,20.25,0,0,1,5.3,2.5,69.2,69.2,0,0,1,6,11.4l-2.6,1.2-5.2,2.3a5,5,0,0,0-1.7,1.2h0l-.1.1a.77.77,0,0,1-.2-.3h-.1c-.1,0-.2-.1-.3-.2h0c-.1,0-.1-.1-.2-.1a2.18,2.18,0,0,1-.4-.5l-1.2-2.1a4.87,4.87,0,0,0-.4-1.1v-.2c0-.2-.1-.3-.1-.5A40.67,40.67,0,0,1,92.25,91.65Zm.9,38h.4a1.61,1.61,0,0,0,.9-.3h0a39.52,39.52,0,0,0,2.7-3.7h0v-.1a18.65,18.65,0,0,0,1-2v.1a9.49,9.49,0,0,0,.9-2.1c.5-1,1.1-2.1,1.7-3.5L103,113l.3-.3a.1.1,0,0,0,.1-.1h0a2.47,2.47,0,0,1,1.6-.7h.2a.31.31,0,0,0,.1-.2.1.1,0,0,0-.1-.1c0-.1-.1-.1-.2-.1a2.52,2.52,0,0,0-1.6.5l.1-.1a10.31,10.31,0,0,1,2-1.5c1.7-.8,2.8-1.3,3.3-1.6.1.2.1.3.2.5l1.4,6.7v.2c0,.1.1.1.1.2h0v0c-.1-.1-.1-.1-.1-.2a54.29,54.29,0,0,1-3.6,7c-.5.5-1.5,1.7-2.9,3.5-.1.2-.3.4-.4.6-.5.6-1,1.2-1.5,1.7l-.8.8-.3.3a.1.1,0,0,1-.1.1c-1,.9-1.9,1.8-2.7,2.6a1.21,1.21,0,0,0-.5-.5.31.31,0,0,0-.2-.1c-.1.1-.1.1-.2.1s-.1.1-.1.2.1.1.1.2c.2.1.3.3.4.4v.1c-.1.1-.2.2-.2.3a5.6,5.6,0,0,1-2.6,1.3v-.1h0v-.1l.1-.1a.1.1,0,0,1,.1-.1c0-.1.1-.1.1-.2s.1-.2.2-.3v-.2c0-.1,0-.1-.1-.2H95a.1.1,0,0,0-.1.1,2.19,2.19,0,0,0-.3.5c0,.1-.1.1-.1.2h.1a2.19,2.19,0,0,1-.5.3c-.1,0-.3,0-.3.1-.1-.1-.1-.2-.2-.2s-.1-.1-.2-.1-.1.1-.2.1-.1.1,0,.2v.3h0v.1a.76.76,0,0,0-.2.4.54.54,0,0,1-.3.4,1.09,1.09,0,0,1-.5.1h0c-.2,0-.3-.1-.4-.3a3.75,3.75,0,0,1,1.1-2.4,4.74,4.74,0,0,1,1-1h0l.1-.1c.1-.1.1-.1.1-.2v-.2a.35.35,0,0,0-.2-.1c-.1-.1-.1,0-.2,0a.35.35,0,0,0-.2.1c-.4.4-.8.7-1.1,1a2.66,2.66,0,0,0-.6,1,.31.31,0,0,0-.1.2c-.1.2-.1.4-.2.6s-.1.4-.2.6l-.3.3-.5.1c-.1,0-.2-.1-.4-.1l-.1-.1v-.1a.22.22,0,0,1-.2-.2,8.34,8.34,0,0,1,1.7-3.4c.1,0,.1-.1.1-.2a.37.37,0,0,0,.1-.3V131c0-.1,0-.1-.1-.1h-.2c-.1,0-.1,0-.2.1a.35.35,0,0,0-.1.2l-.1.1h-.1a3.51,3.51,0,0,0-.5.8v.1a5.94,5.94,0,0,0-.8,1.1,4.33,4.33,0,0,0-.5,1.2.35.35,0,0,0-.1.2h-.6c-.2-.1-.3-.3-.5-.4,0-.1-.1-.1-.1-.2l.7-1.7a4.68,4.68,0,0,1,.8-1.4,2.31,2.31,0,0,1,.7-.7.1.1,0,0,0,.1-.1c.1-.1,0-.2,0-.3a.35.35,0,0,0-.2-.1c-.1,0-.1,0-.2.1a6.47,6.47,0,0,0-.9.8,5.3,5.3,0,0,0-.8,1.5h0l-.2.5c0,.1-.1.1-.1.2a1.7,1.7,0,0,1-.6.6c-.1,0-.1-.1-.2-.1a.1.1,0,0,0-.1-.1c-.1-.2,0-.5.1-.9a7.18,7.18,0,0,1,1.7-3,.37.37,0,0,1,.3-.1H89a1.09,1.09,0,0,1,.5-.1h.1A7.52,7.52,0,0,1,93.15,129.65Zm-26.7-52.3c0-.3,0-.4.2-.6a3.59,3.59,0,0,0,1.1-.2,4.35,4.35,0,0,1,.7-.4,5.58,5.58,0,0,0,2.4-2.8v-.2a5.27,5.27,0,0,0,.3-1.2h0a4.05,4.05,0,0,0,0-1.1v-.1a4.1,4.1,0,0,0-.1-1.1H71v-.1a2.67,2.67,0,0,0-1.3-1.9,1.61,1.61,0,0,0-.7-.4h0a1.38,1.38,0,0,1-.4-.3c0-.1-.1-.1-.2-.2s-.3,0-.3.1,0,.3.1.3l-.5-.1c0-.1-.1-.2-.1-.3h-.3v-.2a4,4,0,0,1,.4-2.5,1.8,1.8,0,0,0,.4-.9h0a2,2,0,0,0,.2-1v-.3h0v-.5a1.88,1.88,0,0,1,.2-.8l-3.1-5.9c-1.4-2-1.6-3.7-.5-4.9a6.18,6.18,0,0,1,5.9-2.2.1.1,0,0,1,.1.1H71c4.2-1.8,8.4-1.3,12.6,1.7a57,57,0,0,1,10.5,7.7c2.1,0,3.4,1.2,3.7,3.8a15,15,0,0,1,1.1,1.3c2.1,3.1,2.1,6.5,0,10.1a31,31,0,0,1-6.1,5.9,2.09,2.09,0,0,1-.4.6l-.1.1c-.5.3-1,.7-1.5,1,.1,0,.1-.1.2-.2s0-.1-.1-.2a.1.1,0,0,0-.1-.1h-.1c-.1,0-.1,0-.2.1h0c-.2.2-.3.4-.5.6h0c-.2.3-.5.5-.7.8l-.4.4a.6.6,0,0,0-.4.1h-.1v.1h-.1l-.1.1-.1.1-.1.1a.14.14,0,0,0,0,.2h0l.1.1a.14.14,0,0,0,.2,0c.1,0,.2,0,.2-.1a.1.1,0,0,1,.1-.1h.1a.76.76,0,0,1,.4-.1l.5.2a8.34,8.34,0,0,0,1.2.8h.1c-.1.3-.1.5-.2.8v.1a18.22,18.22,0,0,1-3.7,6.6,8,8,0,0,1-.9-1.4.35.35,0,0,0-.1-.2c0-.1-.1-.3-.1-.4s0-.1-.1-.2a1,1,0,0,0-.1-.3c-.2-.4-.4-.7-.8-.8-.1-.1-.2-.2-.3-.2s-.1-.1-.2,0-.1,0-.2.1v.2a.1.1,0,0,0,.1.1c.1,0,.2.1.3.2v.1c.3.1.4.3.5.6.1.1.1.2.2.3v.1a.37.37,0,0,1,.1.3,10,10,0,0,1-1.5,1.3l-.2.2c-1.1.8-2.5,1.8-4,2.7-.1.1-.1.2-.3.2a1.61,1.61,0,0,1-.7.4l-.1.1c-.1,0-.1.1-.1.2v.2l-1.2.7h-.1a.1.1,0,0,0-.1.1h0a7.46,7.46,0,0,1-1.2.7l-.4-.4v0l-1.7-1.8c-.1-.1-.1-.2-.2-.3s-.2-.3-.3-.3l-1-1.3c-.1-.1-.2-.3-.4-.5v-.1c-.1-.1-.1-.2-.2-.3l-.9-1.5c0-.1-.1-.2-.1-.3s-.1-.2-.2-.4l-.2-.5h0c.2-.3.5-.4.5-.7.5-.7.8-1,1.5-1.1h.1a1.39,1.39,0,0,0-1.1.2,6.82,6.82,0,0,0-.5.7c-.1.1-.2.2-.2.3a6.82,6.82,0,0,1-.5.7h-.3l-.4.2h0l-.2.1a11.63,11.63,0,0,1,.4-1.8h0c.3-1.3.6-2.2.7-2.9v-.2a.1.1,0,0,0-.1-.1c.2-.6.4-1,.5-1a.35.35,0,0,0,.2-.1l1.3-.5c.2-.1.3-.2.5-.2h0v2.4h0v1.6a.35.35,0,0,0,.1.2.14.14,0,0,0,.2,0v.1h0c-.1,0-.1,0-.1.1a.6.6,0,0,1,.1.4h.1a.37.37,0,0,1,.1.3l.1.5c-.1-.3-.1-.5-.2-.8h0c0-.1-.1-.3-.1-.4v-.1a.1.1,0,0,1-.1-.1.1.1,0,0,0,.1-.1v-.7a.1.1,0,0,0-.1-.1v-.6a.37.37,0,0,1-.1-.3v-2.6h0c0-.5.1-1,.1-1.7a18.92,18.92,0,0,0,3.1-.3c.3-.1.6-.1.9-.2a15.21,15.21,0,0,1,4.1-.3h.1c.1,0,.1-.1.1-.2s0-.1-.1-.2a.1.1,0,0,0-.1-.1h-.4a13.29,13.29,0,0,0-3.8.4c-1.6.3-3.1.7-4.5,1.1h-1.2a7.94,7.94,0,0,1-3.2-.6c-.9-.4-1.4-.9-1.5-1.6C66.45,77.45,66.45,77.45,66.45,77.35Zm10,27.9a1,1,0,0,1,1.4,0,1.22,1.22,0,0,1,0,1.6,1.08,1.08,0,0,1-.7.3,1.2,1.2,0,0,1-1.1-1.1A2,2,0,0,1,76.45,105.25Zm-.4-5.1a.91.91,0,0,1-.3-.7,1.33,1.33,0,0,1,.3-.8,1.14,1.14,0,0,1,.8-.3.91.91,0,0,1,.7.3,1.14,1.14,0,0,1,.3.8.91.91,0,0,1-.3.7,1.08,1.08,0,0,1-.7.3A1.33,1.33,0,0,1,76.05,100.15Zm1.4,11.7a.91.91,0,0,1,.7-.3,1.14,1.14,0,0,1,.8.3,1,1,0,0,1,.3.8.78.78,0,0,1-.3.7,1.14,1.14,0,0,1-.8.3.91.91,0,0,1-.7-.3,1.08,1.08,0,0,1-.3-.7C77.25,112.35,77.35,112.15,77.45,111.85Zm-33.8-37.1a.75.75,0,0,1,.1-.5.37.37,0,0,1,.1-.3.22.22,0,0,1,.2-.2c0-.1.2-.1.3-.1h.1c.1,0,.3-.1.4-.1s.2-.1.3-.2l.2-.2c.1-.2.1-.3.2-.5h0l1,.1h.1l2.5.4h0l.5.1h0L61.55,75l3.2,2.5h0a.37.37,0,0,0,.3.1c.1,0,.2.1.3.1v.1c0,.2.1.3.1.5l.3.6a1.7,1.7,0,0,0,.6.6l.1.1h.1a.35.35,0,0,0,.2.1,2,2,0,0,0,.8.4h0l.1.1c.1,0,.2.1.3.1h.2l.9.3a.6.6,0,0,1,.4.1h.2c.4,0,.9.1,1.3.1l-.9.3h-.2c-.1,0-.1,0-.2.1h-.1l-.1.1q-.15,0-.3.3a2.09,2.09,0,0,1-.4.6h.1v0h-.1l-2.1.3h-.1a.76.76,0,0,0-.4.1c-.1,0-.1,0-.2.1a1.27,1.27,0,0,0-.6.1c-.8.1-1.6.3-2.6.5h-.1l-1.1.3h-.2c-.7.3-2,1-4.1,1.8h0c-.2,0-.3.1-.5.2h-.1c-.1,0-.3.1-.4.1a.35.35,0,0,1-.2.1c-.1,0-.2.1-.4.1s-.3-.2-.4-.3a.1.1,0,0,1-.1-.1,3.89,3.89,0,0,0-3,0l-3.6,1.4a5.36,5.36,0,0,0-1.1.5,1.38,1.38,0,0,1-.4.3,3.85,3.85,0,0,0-1.1,3.4v.1c0,.2.1.4.1.6a.1.1,0,0,0,.1.1h-.1v-.1l-.2-.2c-.1-.1-.2-.2-.2-.3a.1.1,0,0,1-.1-.1.1.1,0,0,0-.1-.1h0l-.2-.2a22.68,22.68,0,0,1-2.2-3.6,4.88,4.88,0,0,1-.3-.7c0-.1-.1-.2-.1-.3s-.2-.5-.3-.7-.1-.3-.2-.4-.1-.4-.2-.5a.76.76,0,0,0-.2-.4v-.1c-.1-.2-.1-.3-.2-.5s-.1-.3-.2-.5-.1-.3-.2-.5-.1-.3-.1-.4v-.1a1.69,1.69,0,0,0-.2-.5,2.19,2.19,0,0,0,.5-.3c.1-.1.3-.2.4-.3s.3-.2.4-.3a.1.1,0,0,1,.1-.1,1.38,1.38,0,0,1,.4-.3l.3-.3a.1.1,0,0,0,.1-.1h0a3.92,3.92,0,0,0,.8-1c0-.1.1-.1.1-.2a6,6,0,0,0,.3-2.6.37.37,0,0,0-.1-.3c0-.1-.1-.1-.1-.3s0-.1-.1-.1v-.1a.31.31,0,0,0-.1-.2,2.18,2.18,0,0,0-.4-.5h0C43.65,75.05,43.65,74.85,43.65,74.75Zm-13.3-1.7h0a.6.6,0,0,0-.1.4,9,9,0,0,1-1.2-3.8l7,1,.5.1h0l4.1.7h-.6a2.54,2.54,0,0,0-.7.2.35.35,0,0,0-.2-.1h0a2.2,2.2,0,0,0-.8-.1.6.6,0,0,0-.4.1c-.1,0-.1.1-.2.1h0l-.2-.2-.2-.2c-.1-.1-.2-.2-.3-.2A.1.1,0,0,1,37,71h-.5c-.2-.1-.3,0-.5,0h0a2.54,2.54,0,0,0-.7.2.35.35,0,0,0-.2.1C32.85,70.55,31.35,71.15,30.35,73.05Zm7.5-1.5h0Zm11.7,31.3-1.2.7a11.73,11.73,0,0,1-4.5,1.8,9.2,9.2,0,0,1-4.5-1.4c.1.1.2.3.3.4-1.6-2-2.9-5.3-4-9.7-1.3-5.7-2-9.5-1.9-11.4a.35.35,0,0,1-.1-.2,2.67,2.67,0,0,1-.2-1.4c-.8-.9-1.4-2.6-2-5,.1.1.3.1.5.2a11.34,11.34,0,0,1,2,.5h.1a2.49,2.49,0,0,0,.8.1,1.88,1.88,0,0,1,.9.4,1,1,0,0,0,.8.4,4.87,4.87,0,0,1,1.2-.1l2,.5c.2,0,.4.2.7.4s.5.4.6.4h.1c.2,0,.4-.2.6-.5l.3-.5c0-.1-.1-.2-.1-.3a2.48,2.48,0,0,0-.9-.7,2.59,2.59,0,0,1-1.2-1.1v-.5a1.36,1.36,0,0,0-.1,1.6,1.37,1.37,0,0,1-1.1.4h-.2c-.1,0-.2-.1-.3-.1v-1l.1-1.3c0-1.5-.1-2.5-.5-2.9a9.83,9.83,0,0,1-.1,4.9,1.36,1.36,0,0,1-1.8-.2,6.37,6.37,0,0,0,.2-.7c0-.3.1-.6.1-.9a6.25,6.25,0,0,0-.1-1.7,2.3,2.3,0,0,0-.3-.9,1.42,1.42,0,0,0-.2-.6l-.1-.1a6.62,6.62,0,0,1,.6,2.2l-.1,1.8c0,.2-.1.3-.2.5h0a1.33,1.33,0,0,1-1.6-.5,2.15,2.15,0,0,1,.2-1.1h-.1v-.1c0-.1-.1-.1-.1-.2h0a4.28,4.28,0,0,1-.3-1c0-.1-.1-.2-.1-.3h-.1a1.44,1.44,0,0,0-.3.2c-.1.1-.2.1-.5.3s-.3.2-.3.3,0,.1.1.2.2.1.4,0v.2c0,.1,0,.1-.1.2l-.1.3a4.78,4.78,0,0,1-1.8-.6h0a2.19,2.19,0,0,1,0-1.6,3.16,3.16,0,0,1,4.2-1.6c1.3-.6,2.2-.4,2.6.5a.37.37,0,0,1,.3-.1h0a1.64,1.64,0,0,1,1-.1c.1,0,.2.1.3.2.8-.4,1.3-.4,1.8.2v.4c0,.1,0,.1.1.2a.35.35,0,0,0,.2.1h0a5.45,5.45,0,0,1,0,3.1,2,2,0,0,0,.8.1h1a3,3,0,0,1,0,2.6,7.63,7.63,0,0,1-.8,1.1c-.3.2-.6.4-1.1.7a2.69,2.69,0,0,1-1.3.5q-.6.15-.6.6v.1a4.13,4.13,0,0,0,.8,1.9c.4.7.7,1.1.9,1.4.3.8.6,1.5.9,2.2a36.91,36.91,0,0,0,2.9,5.1c.8.9,1.4,1.8,2,2.6l1-.7a.1.1,0,0,0,.1.1c.1.4.3,1,.4,1.5.2.8.5,1.8.8,2.9-.2.3-.1,1.6.2,4.1Zm9.3.4-3.6,1.4h-.2a.1.1,0,0,0-.1.1c-.1,0-.1,0-.2.1h-.5a1.6,1.6,0,0,1-.8-.3,2.18,2.18,0,0,1-.5-.4l-.1-.1c-.2-.2-.3-.4-.5-.6,0-.1-.1-.2-.2-.3a5.74,5.74,0,0,1-.4-.7c-.1-.2-.2-.6-.4-1.2a6.57,6.57,0,0,1-.6-1.2,2.77,2.77,0,0,1-.5-1.2c-.2-.7-.5-1.5-.8-2.4a8.34,8.34,0,0,0-.4-1.2,2.09,2.09,0,0,0-.4-.6c0-.3-.1-.4-.1-.6s-.1-.2-.1-.3l-.2-.6c-.1-.4-.3-.8-.4-1.1-.4-1.8.1-2.9,1.3-3.4l3.6-1.4a2.16,2.16,0,0,1,2.4.5.35.35,0,0,1,.1.2h.1a.37.37,0,0,1,.1.3h0c.1.1.2.4.4.7a3,3,0,0,1,.4,1l2.8,7.2.5,1.3a14.24,14.24,0,0,1,.5,1.6C60.55,101.75,60.05,102.75,58.85,103.25ZM65,85.85c-.4.7-.7,1.5-1.1,2.3a25.52,25.52,0,0,0-1.5,7.1,9.7,9.7,0,0,0-.1,1.7v1.4c0,.3.1.6.1.8l-.2.1a.6.6,0,0,0-.4.1c-.3.1-.7.3-1.1.4-.1-.4-.3-.9-.4-1.4L57,89.85a5.36,5.36,0,0,0-.5-1.1c-.2-.3-.4-.5-.4-.7s0-.1-.1-.1h0c.1,0,.1,0,.2-.1,3.2-1.3,5.1-2.2,6.1-2.7.4-.1.7-.2,1-.3a6.87,6.87,0,0,1,2.4-.5h.1C65.45,85,65.15,85.35,65,85.85Zm14,82.6q-17.4-13.2-33.7-36.7a147,147,0,0,0,22.1-13.6c2.6-1.9,5.3-3.9,7.9-6a157.85,157.85,0,0,0,13.4,16.9c-.1,0-.2.1-.3.1a7.08,7.08,0,0,0-1.8,3.2,1.73,1.73,0,0,0-.1,1.2h0c.1.2.4.3.6.5h0v.1h.2v.1c0,.1.1.2.2.4a1,1,0,0,0,.5.4c.1,0,.1.1.2.1s.1,0,.1.1H89c.1.1.2.3.3.4l.2.1a.76.76,0,0,0,.5.2l.7-.1h.4a1.27,1.27,0,0,0,1.6.3,4.88,4.88,0,0,0,.3-.7c0-.1.1-.2.1-.3s.2-.1.3-.2a.1.1,0,0,0,.1-.1c.1,0,.3-.1.4-.1a.1.1,0,0,0,.1.1l.8.8a4.35,4.35,0,0,1,.6.7c.2.2.4.3.6.5A153.09,153.09,0,0,0,114,152,78.64,78.64,0,0,1,79,168.45Z" transform="translate(-8.65 -10.55)"/><path d="M65.25,137.55c-1.4.8-2.8,1.7-4.2,2.5a133,133,0,0,0,22.5,23.3,2.51,2.51,0,0,1,.7-.4c1.2-.7,2.3-1.3,3.5-2.1A126.31,126.31,0,0,1,65.25,137.55Z" transform="translate(-8.65 -10.55)"/><path d="M81.05,127c-1.2.9-2.4,1.8-3.7,2.6a129.65,129.65,0,0,0,22.5,23.3h0c.2-.1.4-.3.6-.4l3.1-2.2A123.26,123.26,0,0,1,81.05,127Z" transform="translate(-8.65 -10.55)"/><path d="M110.45,116.35h0v0Z" transform="translate(-8.65 -10.55)"/><path d="M110.35,116.15c0,.1,0,.1.1.2C110.45,116.25,110.45,116.25,110.35,116.15Z" transform="translate(-8.65 -10.55)"/><path d="M94.15,134.25Z" transform="translate(-8.65 -10.55)"/><path class="cls-3" d="M98,113.55h.6a.6.6,0,0,1,.4-.1h.1c.2,0,.3-.1.5-.1l.2.4h0a.31.31,0,0,0,.1.2.35.35,0,0,0,.1.2c0,.1-.1.1-.1.2v.1c0,.1-.1.2-.1.3s-.1.1-.1.3a2.19,2.19,0,0,1-.3.5c-.1.1-.1.3-.2.4l-.1.1q-.3.9-.6,2.1c0,.1-.1.2-.1.4a2.61,2.61,0,0,1-.3.8c-.1.3-.2.7-.3,1a6.89,6.89,0,0,1-.4,1c-.1-.4-.1-.7-.2-1s-.1-.7-.2-1.1-.1-.8-.2-1.2c-.1-.7-.2-1.4-.3-2v-1.2c0-.2-.1-.4-.1-.6a1.48,1.48,0,0,0-.1-.7,1.48,1.48,0,0,0-.1-.7c.2.1.4.3.6.4s.4.1.5.2" transform="translate(-8.65 -10.55)"/></svg>